<svg xmlns="http://www.w3.org/2000/svg" viewBox="0 0 192 192">
  <defs>
    <linearGradient id="bg" x1="0" y1="0" x2="0" y2="1">
      <stop offset="0%" stop-color="#1a3d5f"/>
      <stop offset="100%" stop-color="#0d1f2e"/>
    </linearGradient>
    <linearGradient id="hull" x1="0" y1="0" x2="1" y2="1">
      <stop offset="0%" stop-color="#5c3317"/>
      <stop offset="100%" stop-color="#3d1f08"/>
    </linearGradient>
    <linearGradient id="sail" x1="0" y1="0" x2="1" y2="1">
      <stop offset="0%" stop-color="#f5e6c8"/>
      <stop offset="100%" stop-color="#d4b88c"/>
    </linearGradient>
  </defs>
  <rect width="192" height="192" rx="24" fill="url(#bg)"/>
  <!-- Casco -->
  <path d="M40 130 L60 88 L132 88 L152 130 Z" fill="url(#hull)" stroke="#2a1508" stroke-width="2"/>
  <!-- Mástil -->
  <rect x="90" y="38" width="6" height="90" rx="2" fill="#5c3317"/>
  <!-- Vela mayor -->
  <path d="M60 50 Q96 32 132 50 L132 88 Q96 76 60 88 Z" fill="url(#sail)" stroke="#b89464" stroke-width="1.5"/>
  <!-- Vela menor -->
  <path d="M72 56 Q96 46 120 56 L120 78 Q96 70 72 78 Z" fill="url(#sail)" stroke="#b89464" stroke-width="1" opacity="0.85"/>
  <!-- Bandera -->
  <path d="M96 38 L96 22 L122 30 L96 38" fill="#c0392b" stroke="#8a2418" stroke-width="1"/>
  <!-- Línea de agua -->
  <path d="M30 130 L162 130" stroke="rgba(255,255,255,0.08)" stroke-width="2"/>
  <path d="M20 138 Q48 132 96 138 Q144 144 172 136" fill="none" stroke="rgba(255,255,255,0.06)" stroke-width="3"/>
</svg>
