<svg xmlns="http://www.w3.org/2000/svg" viewBox="0 0 512 512">
  <defs>
    <linearGradient id="bg" x1="0" y1="0" x2="0" y2="1">
      <stop offset="0%" stop-color="#1a3d5f"/>
      <stop offset="100%" stop-color="#0d1f2e"/>
    </linearGradient>
    <linearGradient id="hull" x1="0" y1="0" x2="1" y2="1">
      <stop offset="0%" stop-color="#5c3317"/>
      <stop offset="100%" stop-color="#3d1f08"/>
    </linearGradient>
    <linearGradient id="sail" x1="0" y1="0" x2="1" y2="1">
      <stop offset="0%" stop-color="#f5e6c8"/>
      <stop offset="100%" stop-color="#d4b88c"/>
    </linearGradient>
  </defs>
  <rect width="512" height="512" rx="48" fill="url(#bg)"/>
  <!-- Casco -->
  <path d="M80 320 L120 220 L392 220 L432 320 Z" fill="url(#hull)" stroke="#2a1508" stroke-width="4"/>
  <!-- Mástil -->
  <rect x="242" y="80" width="16" height="240" rx="4" fill="#5c3317"/>
  <!-- Vela mayor -->
  <path d="M140 120 Q256 80 372 120 L372 220 Q256 180 140 220 Z" fill="url(#sail)" stroke="#b89464" stroke-width="3"/>
  <!-- Vela menor -->
  <path d="M176 136 Q256 116 336 136 L336 196 Q256 176 176 196 Z" fill="url(#sail)" stroke="#b89464" stroke-width="2" opacity="0.85"/>
  <!-- Vela superior -->
  <path d="M200 72 Q256 56 312 72 L312 120 Q256 106 200 120 Z" fill="url(#sail)" stroke="#b89464" stroke-width="1.5" opacity="0.7"/>
  <!-- Bandera -->
  <path d="M258 80 L258 30 L310 50 L258 80" fill="#c0392b" stroke="#8a2418" stroke-width="2"/>
  <!-- Línea de agua -->
  <path d="M50 320 L462 320" stroke="rgba(255,255,255,0.08)" stroke-width="4"/>
  <path d="M30 350 Q128 330 256 350 Q384 370 482 340" fill="none" stroke="rgba(255,255,255,0.06)" stroke-width="6"/>
  <!-- Círculo decorativo alrededor -->
  <circle cx="256" cy="256" r="200" fill="none" stroke="rgba(200,150,12,0.15)" stroke-width="2"/>
  <circle cx="256" cy="256" r="210" fill="none" stroke="rgba(200,150,12,0.08)" stroke-width="1"/>
</svg>
